HIERARCHY
ROOT Hips
{
  OFFSET 13.6774 106.653 -34.4427
  CHANNELS 6 Xposition Yposition Zposition Zrotation Xrotation Yrotation
  JOINT ToSpine
  {
    OFFSET -2.69724 7.43032 -0.144315
    CHANNELS 3 Zrotation Xrotation Yrotation
    JOINT Spine
    {
      OFFSET -0.0310711 10.7595 1.96963
      CHANNELS 3 Zrotation Xrotation Yrotation
      JOINT Spine1
      {
        OFFSET 19.9056 3.91189 0.764692
        CHANNELS 3 Zrotation Xrotation Yrotation
        JOINT Neck
        {
          OFFSET 25.9749 7.03908 -0.130764
          CHANNELS 3 Zrotation Xrotation Yrotation
          JOINT Head
          {
            OFFSET 9.52751 0.295786 -0.907742
            CHANNELS 3 Zrotation Xrotation Yrotation
            End Site
            {
              OFFSET 16.4037 0.713936 2.7358
            }
          }
        }
        JOINT LeftShoulder
        {
          OFFSET 17.7449 4.33886 11.7777
          CHANNELS 3 Zrotation Xrotation Yrotation
          JOINT LeftArm
          {
            OFFSET 0.911315 1.27913 9.80584
            CHANNELS 3 Zrotation Xrotation Yrotation
            JOINT LeftForeArm
            {
              OFFSET 28.6126 1.18197 -3.53199
              CHANNELS 3 Zrotation Xrotation Yrotation
              JOINT LeftHand
              {
                OFFSET 27.5088 0.0218783 0.327423
                CHANNELS 3 Zrotation Xrotation Yrotation
                End Site
                {
                  OFFSET 18.6038 -0.000155887 0.382096
                }
              }
            }
          }
        }
        JOINT RightShoulder
        {
          OFFSET 17.1009 2.89543 -12.2328
          CHANNELS 3 Zrotation Xrotation Yrotation
          JOINT RightArm
          {
            OFFSET 1.4228 0.178766 -10.211
            CHANNELS 3 Zrotation Xrotation Yrotation
            JOINT RightForeArm
            {
              OFFSET 28.733 1.87905 2.64907
              CHANNELS 3 Zrotation Xrotation Yrotation
              JOINT RightHand
              {
                OFFSET 27.4588 0.290562 -0.101845
                CHANNELS 3 Zrotation Xrotation Yrotation
                End Site
                {
                  OFFSET 17.8396 -0.255518 -0.000602873
                }
              }
            }
          }
        }
      }
    }
  }
  JOINT LeftUpLeg
  {
    OFFSET -5.61296 -2.22332 -10.2353
    CHANNELS 3 Zrotation Xrotation Yrotation
    JOINT LeftLeg
    {
      OFFSET 2.56703 -44.7417 -7.93097
      CHANNELS 3 Zrotation Xrotation Yrotation
      JOINT LeftFoot
      {
        OFFSET 3.16933 -46.5642 -3.96578
        CHANNELS 3 Zrotation Xrotation Yrotation
        JOINT LeftToeBase
        {
          OFFSET 0.346054 -6.02161 12.8035
          CHANNELS 3 Zrotation Xrotation Yrotation
          End Site
          {
            OFFSET 0.134235 -1.35082 5.13018
          }
        }
      }
    }
  }
  JOINT RightUpLeg
  {
    OFFSET -5.7928 -1.72406 10.6446
    CHANNELS 3 Zrotation Xrotation Yrotation
    JOINT RightLeg
    {
      OFFSET -2.57161 -44.7178 -7.85259
      CHANNELS 3 Zrotation Xrotation Yrotation
      JOINT RightFoot
      {
        OFFSET -3.10148 -46.5936 -4.03391
        CHANNELS 3 Zrotation Xrotation Yrotation
        JOINT RightToeBase
        {
          OFFSET -0.0828122 -6.13587 12.8035
          CHANNELS 3 Zrotation Xrotation Yrotation
          End Site
          {
            OFFSET -0.131328 -1.35082 5.13018
          }
        }
      }
    }
  }
}
MOTION
Frames: 7
Frame Time: 0.03333333333333333
0.0000 93.1000 0.0000 -8.4384 -69.4760 -102.9375 -70.7623 -0.1824 87.7393 77.7532 64.8537 0.1395 -1.7507 14.0723 9.1645 -151.0812 21.9777 178.3844 -155.1140 60.2099 175.2491 -0.0061 -16.1218 -23.0796 -85.3407 52.1383 -130.6003 -11.9780 5.3765 -113.5528 -1.4564 0.3399 0.1257 -0.8527 3.5931 25.1116 -76.4404 -39.9124 119.4706 4.3509 3.0219 126.2654 0.1631 -0.5572 0.2873 -65.4020 6.8091 96.7094 -1.0286 29.1901 -7.8928 -2.6457 -6.9653 -1.0277 6.3252 -16.6431 13.5033 -28.1086 -0.4998 94.0488 1.5077 46.2452 2.3175 -6.2955 -11.4680 1.4829 0.4564 -2.9249 -4.2049 
0.0000 93.1000 0.0000 6.6407 -68.7988 -88.2980 -70.7402 0.5781 87.8062 80.9209 64.9945 -2.2481 -2.6222 14.4507 7.8751 -149.1086 22.9541 177.4731 -154.2392 60.6254 174.8224 0.8341 -16.6995 -23.2257 -83.8535 49.5552 -131.4022 -11.9328 4.2096 -111.6363 -0.6491 -0.7966 -0.7020 -1.1308 3.8770 26.0547 -81.1623 -39.7688 119.6428 3.6830 2.8082 126.1690 -0.1754 0.6879 -0.5123 -63.9894 9.0365 98.0054 -1.0148 29.2926 -1.5902 -3.2785 -6.2081 -0.3128 5.0181 -13.9213 10.6003 -27.3823 -4.0497 90.8514 2.3658 46.3250 1.8745 -5.5119 -12.8035 1.7594 0.2701 -2.1235 -4.7013 
0.0000 93.1000 0.0000 19.0010 -68.7953 -74.5918 -70.5334 0.2411 87.7618 83.7644 65.3117 -4.7044 -3.1250 14.3181 7.1191 -148.0610 24.2341 177.5823 -158.0110 62.5746 177.8221 0.3688 -16.8980 -23.7628 -84.5347 46.7811 -130.5227 -8.9986 2.9692 -111.3915 -0.1230 -0.0612 -0.0100 -0.7989 4.4300 24.4163 -87.1434 -40.6889 118.9862 4.4612 3.0756 125.2078 0.0862 -0.0569 0.2127 -62.6912 11.1100 97.8437 -0.9970 31.0186 1.8030 -2.9953 -3.9443 -0.7166 3.3535 -10.2614 6.8713 -28.0581 -6.0393 88.8118 2.0122 45.2347 0.9672 -4.3442 -13.3189 1.6174 -0.3713 -1.3279 -5.1458 
0.0000 93.1000 0.0000 28.7725 -66.4350 -62.7351 -70.5658 0.0304 87.9839 84.8101 65.7101 -4.8655 -2.4013 13.2653 6.1749 -145.0493 25.3744 172.8312 -153.0309 63.9804 173.2979 0.2379 -17.0655 -22.3467 -81.4186 45.0813 -133.3681 -5.7486 1.5385 -107.7594 -0.0906 -0.3072 0.0315 -1.3407 4.7813 26.1242 -91.9632 -40.1462 117.4920 2.8572 2.6333 125.2711 -0.1048 0.2937 -0.0946 -61.6127 12.7649 97.8743 -1.6573 32.1200 0.9104 -1.9587 -0.0242 0.0909 3.1885 -9.4209 5.9610 -29.1175 -7.9748 86.6711 1.9971 45.4186 1.1990 -3.6483 -13.6012 0.8085 0.3611 -0.8301 -9.4955 
0.0000 93.1000 0.0000 36.8584 -64.5826 -54.2336 -70.5471 0.8060 87.8931 83.9227 66.0087 -3.1405 -1.8744 13.9923 5.9417 -141.5186 25.8937 171.0245 -150.6884 64.1617 174.0442 0.6750 -16.6085 -21.8968 -78.7591 44.2049 -135.1612 -3.1376 0.6138 -106.8642 0.4789 -0.4443 -0.3026 -0.8046 5.0148 26.1239 -96.1328 -38.9802 117.2089 3.8146 3.2742 123.7464 0.5047 0.5110 -0.1117 -61.4219 14.3299 96.7531 -1.6878 32.7036 0.2311 -1.5651 3.0442 -0.2546 1.8918 -7.8016 4.7931 -29.9245 -10.6210 85.3434 2.1994 43.3501 0.0056 -4.0882 -14.9165 1.6427 1.6144 -0.0841 -10.4281 
0.0000 93.1000 0.0000 41.5941 -61.7623 -47.0934 -70.5470 -1.5633 87.9358 83.8512 66.5833 -1.7418 -1.6438 14.4417 3.5980 -139.2388 26.4291 169.1724 -152.9172 65.2449 175.7782 -0.8418 -16.2993 -22.5687 -76.5759 43.5769 -137.4303 -1.1036 -0.2262 -107.2125 -0.7184 0.1407 1.3064 -2.3136 5.6823 24.6524 -99.7919 -38.8244 115.2036 6.0953 4.7989 123.8635 -1.2444 -0.1279 -1.0411 -61.1398 14.7459 96.1285 -2.1103 32.8987 -0.0029 -2.2009 3.7246 1.2085 2.9394 -9.4082 2.6310 -31.8296 -11.1026 84.2426 0.7895 41.9487 -0.2312 -2.8623 -14.4763 -1.1157 -0.1191 -0.0405 -10.2758 
0.0000 93.1000 0.0000 47.1148 -59.8801 -41.5177 -70.6664 1.9370 87.9457 84.1981 66.5230 -0.2948 0.0334 15.4437 4.6621 -140.5483 27.0814 173.4945 -161.5864 66.2316 -176.0007 1.2126 -15.2086 -22.3705 -75.1589 41.2275 -138.2260 -0.9706 0.8385 -107.0654 0.4330 -0.0563 -0.9457 0.5688 5.5281 23.6599 -102.6415 -39.3785 116.3426 9.5063 5.2216 122.0528 0.7858 -0.0446 0.1754 -59.9273 14.5919 94.4768 -2.3801 31.8777 -1.0064 -5.0767 4.1710 -1.3367 4.2188 -10.3861 1.6285 -31.3202 -13.5190 82.1590 1.0952 40.2733 -0.7138 -2.1844 -15.4786 3.4262 2.7864 -1.6493 -12.1641 
